# xmcd
#
# Track frame offsets: 
#        150
#        11676
#        23183
#        36420
#        47406
#        60463
#        73230
#        87548
#        106219
#        121287
#        135071
#        146678
#        156662
#        170060
#        181867
#        194868
#        209792
#        223808
#        233621
#        246064
#        256247
#        266438
#        278212
#        292750
#        303729
#
# Disc length: 4201 seconds
#
# Revision: 0
# Processed by: cddbd v1.5.1PL0 Copyright (c) Steve Scherf et al.
# Submitted via: ExactAudioCopy v0.95a5
#
DISCID=7e106719
DTITLE=Various Artist - Country klassiker CD1
DYEAR=2003
DGENRE=Country
TTITLE0=Johnny Cash - I walk the line
TTITLE1=Patsy Cline - Walkin' after midnight
TTITLE2=Hank Williams - Hey, good looking
TTITLE3=George Jones - Tender years
TTITLE4=Jerry Lee Lewis - You win again
TTITLE5=Hank Snow - I'm movin' on
TTITLE6=Kitty Wells - It wasn't god who made honky tonk angels
TTITLE7=Alabama - I wanna be with you tonight
TTITLE8=Jimmie Rodgers - In the jailhous now
TTITLE9=Willie Nelson - Blu eyes crying in the rain
TTITLE10=Eddy Arnold - Bouquet of roses
TTITLE11=Jim Reeves - Home
TTITLE12=Kenny Rogers - Ruby, don't take your love to town
TTITLE13=Tammy Wynette - Stand by your man (live)
TTITLE14=Charlie Rich - The most beutyful girl
TTITLE15=Jeannie C Riley - Harper Valley PTA
TTITLE16=Glen Campbell - Rhinestone cowboy (live)
TTITLE17=Faron Young - Hello walls
TTITLE18=Merle Haggard - If we make it through december
TTITLE19=Dolly Parton - Release me
TTITLE20=Merle Travis - Divorce me C.O.D.
TTITLE21=Ernest Tubb - Walkingthe floor over you
TTITLE22=Loretta Lynn - Coal miner's daughter (live)
TTITLE23=Buck Owens - Together again
TTITLE24=Freddy Fender - Before the next teardrop falls
EXTD=
EXTT0=
EXTT1=
EXTT2=
EXTT3=
EXTT4=
EXTT5=
EXTT6=
EXTT7=
EXTT8=
EXTT9=
EXTT10=
EXTT11=
EXTT12=
EXTT13=
EXTT14=
EXTT15=
EXTT16=
EXTT17=
EXTT18=
EXTT19=
EXTT20=
EXTT21=
EXTT22=
EXTT23=
EXTT24=
PLAYORDER=
